<?xml version="1.0" standalone="no"?>
<!DOCTYPE svg PUBLIC "-//W3C//DTD SVG 20010904//EN"
 "http://www.w3.org/TR/2001/REC-SVG-20010904/DTD/svg10.dtd">
<svg version="1.0" xmlns="http://www.w3.org/2000/svg"
 width="2134.000000pt" height="1327.000000pt" viewBox="0 0 2134.000000 1327.000000"
 preserveAspectRatio="xMidYMid meet">
<metadata>
Created by potrace 1.15, written by Peter Selinger 2001-2017
</metadata>
<g transform="translate(0.000000,1327.000000) scale(0.100000,-0.100000)"
fill="#000000" stroke="none">
<path d="M0 11817 l0 -563 54 -17 c80 -24 317 -140 394 -192 37 -24 105 -78
150 -119 160 -143 289 -241 347 -263 84 -32 150 -26 190 17 14 16 42 45 61 65
19 21 34 42 34 47 0 7 19 9 50 6 49 -5 52 -7 203 -159 84 -85 164 -172 178
-194 32 -51 66 -138 74 -191 10 -66 -42 -146 -120 -187 -204 -106 -263 -121
-465 -120 -252 1 -413 43 -592 152 -142 86 -259 181 -395 318 -77 77 -130 123
-143 123 l-20 0 0 -1237 c0 -1107 2 -1238 16 -1254 29 -32 81 -432 68 -534 -8
-68 -34 -119 -62 -123 l-22 -3 0 -2881 0 -2880 27 5 c16 3 55 15 88 27 49 17
88 22 213 25 250 7 344 34 420 120 46 53 59 87 69 189 5 55 12 75 33 99 l27
30 184 1 c189 0 234 -6 315 -48 49 -25 54 -37 55 -127 1 -100 -24 -253 -42
-265 -5 -3 -9 -14 -9 -25 0 -11 -11 -41 -23 -67 -13 -26 -32 -73 -41 -104 -10
-32 -22 -58 -26 -58 -5 0 -16 -20 -26 -45 -9 -25 -20 -45 -24 -45 -5 0 -18
-19 -30 -42 -12 -24 -32 -54 -44 -68 -13 -14 -43 -52 -67 -85 -24 -33 -46 -62
-49 -65 -3 -3 -34 -45 -69 -95 -110 -155 -144 -198 -211 -271 -42 -46 -92
-118 -140 -203 -41 -73 -82 -143 -90 -155 -64 -97 -137 -191 -218 -283 l-64
-73 1555 0 1556 0 -6 38 c-3 20 -10 41 -14 46 -13 14 -11 114 2 122 8 5 10 33
6 88 -7 103 9 519 24 610 11 66 22 101 56 173 12 26 22 33 43 33 47 0 69 -43
101 -200 16 -78 19 -119 14 -225 -14 -324 -8 -464 24 -525 5 -9 12 -48 16 -88
l7 -72 179 0 179 0 0 2690 0 2690 6675 0 6675 0 0 -289 0 -289 43 16 c24 9 99
18 177 22 74 4 145 11 156 15 49 16 99 122 84 176 -13 44 -43 73 -119 116 -36
20 -72 41 -79 47 -39 32 -87 90 -109 133 -24 44 -27 60 -30 193 -3 147 -23
260 -49 290 -7 9 -20 32 -29 53 -8 20 -22 37 -30 37 -11 0 -15 11 -15 40 l0
40 -655 0 c-408 0 -655 4 -655 10 0 5 7 35 15 67 8 31 15 79 15 105 0 45 -3
50 -65 112 -70 72 -95 112 -135 226 l-26 75 -299 3 -298 2 7 -77 c4 -51 12
-87 24 -103 27 -38 103 -71 184 -81 130 -16 172 -29 217 -68 50 -44 66 -102
35 -127 -29 -22 -84 -44 -112 -44 -36 0 -111 -47 -122 -76 l-10 -24 -773 0
-774 0 5 30 c6 39 -7 108 -17 91 -4 -6 -15 -9 -25 -5 -40 15 -77 -71 -44 -104
9 -9 -51 -12 -271 -12 -266 0 -283 1 -276 18 34 80 55 155 55 197 0 42 -25
234 -45 353 l-6 32 -1569 0 -1569 0 11 -32 c25 -74 154 -279 296 -471 35 -48
62 -90 60 -92 -3 -3 -406 -4 -896 -3 l-892 3 81 95 c117 137 233 243 410 377
l156 118 -560 3 c-308 1 -563 0 -566 -4 -3 -3 -9 -46 -12 -96 -4 -50 -10 -93
-15 -97 -5 -3 -15 -18 -23 -34 -20 -37 -61 -60 -161 -86 -264 -70 -334 -115
-371 -238 l-12 -43 -329 0 -328 0 0 83 c0 237 30 319 132 371 52 26 72 29 205
37 170 9 229 26 328 95 17 12 -255 14 -1828 14 l-1847 0 0 142 c0 140 0 141
-20 123 -11 -10 -20 -26 -20 -37 0 -10 -5 -18 -11 -18 -6 0 -22 -13 -36 -30
-13 -16 -31 -30 -38 -30 -25 0 -158 -139 -224 -235 -131 -189 -255 -329 -346
-391 -27 -18 -88 -61 -135 -94 -47 -33 -92 -63 -100 -67 -8 -3 -27 -15 -42
-25 -14 -10 -68 -39 -120 -64 -51 -25 -100 -49 -109 -54 -9 -5 -54 -23 -100
-40 -46 -17 -106 -40 -134 -50 -65 -25 -209 -42 -257 -31 -181 42 -318 330
-359 751 -14 151 -8 203 32 263 27 41 36 47 84 57 63 13 136 5 168 -19 12 -9
56 -34 97 -55 70 -36 81 -39 160 -39 67 0 105 7 180 31 194 61 270 115 314
220 23 55 26 70 20 139 -9 117 -53 233 -117 303 -22 24 -87 60 -108 60 -13 0
-61 21 -138 58 -67 33 -144 106 -167 158 -13 32 -16 68 -15 194 4 294 18 340
150 470 47 46 89 84 94 82 4 -1 7 3 7 8 0 6 7 10 16 10 10 0 14 6 11 14 -3 7
0 19 6 25 16 16 47 14 47 -3 0 -8 11 -28 25 -44 13 -16 22 -31 19 -34 -2 -3 2
-11 11 -18 8 -7 15 -18 15 -24 0 -16 110 -136 124 -136 6 0 24 -7 41 -16 62
-32 163 -13 199 38 32 46 15 94 -75 205 -33 40 -59 79 -59 86 0 7 -5 18 -11
24 -7 7 -8 19 -4 30 5 10 7 23 7 29 -2 11 64 81 135 144 82 74 83 75 58 360
-28 322 -37 351 -137 423 -159 114 -190 142 -218 191 -46 79 -42 142 14 250
29 54 43 92 39 106 -8 29 -69 62 -193 105 -138 48 -193 79 -246 138 -125 139
-76 317 102 373 55 18 98 19 589 18 434 -2 545 -5 610 -17 44 -9 99 -19 123
-22 l42 -7 0 315 0 315 -52 6 c-29 3 -134 9 -233 12 -99 4 -183 8 -187 11 -7
4 -236 31 -268 31 -46 1 -456 34 -580 47 -80 9 -217 22 -305 30 -209 19 -244
28 -297 74 -40 36 -42 41 -43 96 0 52 3 60 28 79 28 20 38 21 240 18 117 -1
248 -7 292 -12 44 -5 202 -14 350 -20 149 -6 313 -13 365 -15 132 -6 519 -15
613 -15 l77 0 0 -50 0 -50 6675 0 6675 0 0 300 0 300 -1332 0 -1333 0 37 25
c20 14 40 25 44 25 4 0 32 20 61 45 64 52 109 111 128 166 l14 39 -204 0
c-113 0 -205 -2 -205 -4 0 -2 7 -23 15 -46 27 -78 13 -161 -34 -204 -10 -9
-55 -24 -100 -32 -75 -14 -86 -14 -116 0 -18 9 -40 16 -49 16 -18 0 -46 60
-46 98 0 25 48 121 78 155 14 16 4 17 -196 17 -117 0 -212 -3 -212 -6 0 -10
44 -88 58 -102 6 -7 12 -18 12 -24 0 -17 61 -88 71 -83 5 4 6 0 3 -8 -3 -8 2
-17 10 -20 9 -4 16 -14 16 -22 0 -9 4 -14 8 -11 5 3 9 -1 9 -9 0 -13 -237 -15
-1845 -15 l-1844 0 -20 25 c-11 14 -26 25 -34 25 -8 0 -14 7 -14 16 0 8 -4 12
-10 9 -5 -3 -10 -22 -10 -41 l0 -34 -130 0 -130 0 0 150 0 150 -590 0 -590 0
-1 -72 c0 -40 -6 -107 -12 -148 l-12 -75 -937 -3 -938 -2 -1 52 c-2 117 -13
168 -45 194 -23 20 -36 23 -68 19 -29 -4 -41 -2 -52 12 -11 15 -16 16 -33 6
-12 -7 -28 -13 -36 -13 -8 0 -15 -7 -15 -16 0 -9 -8 -28 -18 -42 -10 -15 -24
-40 -32 -57 -8 -16 -19 -37 -26 -45 -6 -8 -15 -37 -18 -63 l-7 -48 -707 4
c-611 3 -720 6 -802 20 -52 10 -129 22 -170 28 -110 15 -358 66 -410 84 -25 8
-80 27 -122 41 -42 14 -85 35 -94 45 -9 10 -27 19 -40 19 -15 0 -29 11 -41 30
l-17 30 -2108 0 -2108 0 0 -563z m2036 -1798 c34 -15 81 -54 149 -123 107
-107 245 -268 245 -285 0 -5 6 -14 13 -18 6 -4 17 -15 22 -24 6 -8 34 -51 62
-94 54 -82 76 -129 138 -300 20 -55 43 -113 50 -130 37 -81 78 -240 90 -345 7
-63 15 -124 18 -135 2 -11 2 -14 0 -7 -4 10 -8 10 -19 1 -7 -6 -11 -15 -8 -20
5 -9 -39 -14 -85 -10 -29 3 -150 121 -179 176 -12 22 -30 87 -42 145 -27 139
-52 188 -110 219 -40 21 -54 23 -130 18 -47 -3 -117 -11 -157 -18 -132 -23
-273 15 -334 91 -39 50 -61 162 -53 282 6 110 19 157 74 279 22 50 52 125 66
167 54 160 81 178 190 131z m4331 -3797 c62 -35 158 -119 232 -204 l33 -38
-211 0 -211 0 -6 28 c-4 15 -10 32 -14 37 -12 16 -30 101 -30 138 0 19 7 40
15 47 8 7 15 19 15 28 0 27 102 7 177 -36z"/>
<path d="M12396 12353 c26 -115 44 -145 100 -163 50 -17 104 6 179 76 33 31
76 69 95 85 l35 29 -208 0 -207 0 6 -27z"/>
<path d="M17425 10857 c-79 -31 -76 -25 -73 -160 l3 -122 50 -11 c28 -7 106
-13 175 -14 69 -1 177 -7 240 -14 63 -6 132 -9 152 -5 53 9 88 35 88 64 0 28
-53 75 -107 94 -21 7 -45 19 -53 26 -22 18 -269 131 -316 144 -50 14 -120 13
-159 -2z"/>
<path d="M6521 10304 c-34 -71 -92 -193 -128 -271 -36 -79 -68 -143 -72 -143
-4 0 -31 53 -60 118 -79 173 -194 412 -197 409 -3 -2 -64 -565 -64 -586 0 -6
6 -11 13 -11 11 0 19 53 36 218 23 224 28 252 39 252 4 0 23 -35 42 -78 19
-42 71 -152 115 -245 l81 -167 60 131 c124 277 160 353 170 356 6 2 20 -93 34
-232 21 -212 25 -235 42 -235 11 0 18 7 18 19 0 24 -59 572 -63 585 -2 5 -31
-49 -66 -120z"/>
<path d="M7534 10276 c-34 -83 -89 -216 -123 -296 -33 -80 -61 -148 -61 -152
0 -5 9 -8 19 -8 15 0 28 21 57 95 l38 96 135 -3 136 -3 37 -90 c28 -71 41 -91
58 -93 12 -2 20 0 17 5 -17 30 -71 156 -102 239 -52 140 -136 348 -144 355 -3
4 -34 -61 -67 -145z m117 -69 c26 -67 50 -130 54 -139 7 -17 -2 -18 -109 -18
-64 0 -116 2 -116 5 0 6 100 257 106 267 12 19 22 1 65 -115z"/>
<path d="M8090 10413 c-45 -24 -74 -75 -74 -132 0 -69 23 -95 135 -152 125
-64 153 -95 147 -161 -10 -98 -121 -158 -207 -113 -29 14 -75 63 -84 87 -3 10
-7 10 -17 1 -11 -10 -8 -20 13 -50 49 -72 121 -95 209 -69 81 23 128 81 128
156 0 77 -30 110 -161 175 -101 50 -129 78 -129 127 0 106 121 152 201 77 36
-34 49 -36 49 -10 0 11 -16 32 -36 47 -46 36 -123 43 -174 17z"/>
<path d="M11348 10416 c-50 -18 -114 -68 -160 -124 -72 -88 -77 -216 -13 -321
65 -108 150 -156 276 -155 83 0 182 44 187 83 l4 23 -36 -27 c-108 -82 -260
-70 -359 29 -61 61 -72 90 -72 191 0 81 3 95 30 145 73 134 257 177 387 90 24
-16 45 -25 46 -19 6 15 -15 35 -66 65 -56 33 -164 43 -224 20z"/>
<path d="M14142 10395 c-119 -60 -175 -145 -176 -270 0 -190 117 -308 309
-309 146 -1 262 98 282 239 l6 45 -127 0 c-77 0 -126 -4 -126 -10 0 -6 42 -10
106 -10 l107 0 -6 -40 c-12 -88 -82 -167 -170 -191 -55 -15 -154 -6 -199 17
-44 23 -119 107 -138 154 -8 19 -14 64 -14 100 0 242 292 368 466 200 30 -29
52 -43 60 -39 21 13 -59 87 -127 120 -88 42 -159 41 -253 -6z"/>
<path d="M6900 10120 l0 -300 145 0 c138 0 145 1 145 20 0 19 -7 20 -125 20
l-125 0 0 135 0 135 120 0 c113 0 120 1 120 20 0 19 -7 20 -120 20 l-120 0 0
110 0 110 125 0 c104 0 125 2 125 15 0 13 -23 15 -145 15 l-145 0 0 -300z"/>
<path d="M8570 10185 c0 -215 2 -239 20 -275 25 -48 63 -76 126 -90 97 -22
196 17 233 93 19 40 21 60 21 276 0 216 -1 232 -17 229 -16 -3 -18 -25 -23
-239 -5 -246 -4 -240 -53 -301 -30 -38 -119 -50 -182 -24 -19 8 -46 32 -62 57
l-28 43 -3 233 c-3 192 -6 233 -18 233 -12 0 -14 -40 -14 -235z"/>
<path d="M9230 10120 c0 -258 2 -300 15 -300 12 0 15 25 17 143 2 100 6 142
15 142 6 0 48 -54 92 -120 107 -158 115 -168 135 -164 13 3 -3 33 -79 142 -52
76 -95 140 -95 141 0 2 18 6 40 9 81 11 130 68 130 152 0 59 -25 106 -72 135
-26 16 -51 20 -115 20 l-83 0 0 -300z m165 256 c41 -17 75 -69 74 -111 -1 -74
-66 -125 -156 -125 l-53 0 0 125 0 125 50 0 c28 0 66 -6 85 -14z"/>
<path d="M9750 10120 l0 -300 140 0 c116 0 140 2 140 15 0 12 -23 15 -122 17
l-123 3 0 135 0 135 118 3 c109 2 117 4 117 22 0 19 -7 20 -120 20 l-121 0 3
108 3 107 123 3 c99 2 122 5 122 17 0 13 -24 15 -140 15 l-140 0 0 -300z"/>
<path d="M11877 10413 c-4 -3 -7 -138 -7 -300 0 -254 2 -293 15 -293 13 0 15
24 15 155 l0 155 190 0 190 0 0 -155 c0 -132 2 -155 15 -155 13 0 15 37 13
297 -2 226 -6 297 -15 301 -10 3 -13 -26 -13 -122 l0 -126 -190 0 -190 0 0
125 c0 114 -5 137 -23 118z"/>
<path d="M12748 10414 c-3 -5 -27 -63 -52 -129 -26 -65 -51 -124 -55 -130 -11
-13 -131 -313 -131 -326 0 -5 6 -9 14 -9 14 0 32 35 76 143 l24 57 127 0 c89
0 129 -4 136 -12 6 -7 25 -52 44 -100 24 -62 39 -88 51 -88 14 0 8 21 -33 122
-27 68 -63 161 -81 208 -17 47 -45 117 -63 155 -17 39 -36 81 -41 94 -6 14
-13 21 -16 15z m61 -211 c28 -76 51 -141 51 -145 0 -5 -49 -8 -110 -8 -60 0
-110 3 -110 8 -1 14 105 282 111 282 3 0 29 -62 58 -137z"/>
<path d="M13700 10165 c0 -140 -4 -255 -9 -255 -4 0 -102 98 -216 218 -115
119 -223 233 -242 252 l-33 35 0 -298 c0 -191 4 -297 10 -297 6 0 10 93 10
260 0 143 4 260 9 260 5 0 21 -16 37 -37 15 -20 73 -82 128 -138 56 -56 154
-157 219 -224 l117 -122 0 300 c0 261 -2 301 -15 301 -13 0 -15 -35 -15 -255z"/>
<path d="M14780 10120 l0 -300 145 0 c122 0 145 2 145 15 0 13 -21 15 -125 15
l-125 0 0 140 0 140 125 0 c118 0 125 1 125 20 0 19 -7 20 -125 20 l-125 0 0
110 0 110 125 0 c104 0 125 2 125 15 0 13 -23 15 -145 15 l-145 0 0 -300z"/>
<path d="M6622 9547 c-32 -34 -30 -89 4 -116 36 -28 79 -27 109 4 31 30 32 73
4 109 -27 35 -86 36 -117 3z m112 -9 c9 -12 16 -33 16 -46 0 -29 -42 -72 -70
-72 -28 0 -70 43 -70 71 0 59 92 94 124 47z"/>
<path d="M8380 8415 c-6 -14 -10 -32 -10 -40 0 -18 -17 -28 -25 -15 -24 39
-125 -31 -125 -87 0 -39 21 -65 51 -64 87 2 80 -4 110 114 15 59 23 110 18
113 -5 3 -14 -7 -19 -21z"/>
<path d="M10295 8418 c-25 -14 -35 -28 -35 -51 0 -11 -14 -32 -31 -48 -24 -22
-30 -35 -27 -61 4 -46 41 -64 95 -45 28 9 44 10 56 3 21 -13 34 -1 18 18 -9
10 -9 20 0 40 13 28 4 50 -11 26 -5 -8 -11 -19 -13 -25 -6 -15 -29 8 -51 50
-15 27 -17 41 -9 53 12 20 51 28 66 13 15 -15 27 -14 27 4 0 9 -12 20 -26 25
-31 12 -34 12 -59 -2z"/>
<path d="M10865 8418 c-2 -7 -15 -57 -28 -110 l-25 -97 32 -1 c17 0 41 -1 54
-1 29 -1 61 26 78 68 25 59 -12 104 -73 88 -24 -6 -25 -5 -19 30 5 22 3 35 -4
35 -6 0 -13 -6 -15 -12z"/>
<path d="M15043 8393 c-6 -25 -14 -37 -24 -34 -52 14 -60 12 -94 -22 -27 -27
-35 -43 -35 -70 0 -46 17 -58 79 -55 58 3 48 -12 85 134 18 71 19 84 7 84 -5
0 -13 -17 -18 -37z"/>
<path d="M7604 8393 c2 -16 8 -63 11 -105 4 -49 11 -78 18 -78 7 0 28 25 47
55 19 30 38 55 41 55 4 0 10 -25 14 -55 4 -32 11 -55 18 -55 14 0 132 198 124
206 -11 11 -26 -7 -68 -81 -24 -41 -44 -73 -46 -72 -1 2 -6 27 -10 57 -5 29
-13 55 -18 57 -6 1 -28 -25 -50 -59 -22 -34 -41 -56 -42 -48 -1 8 -5 45 -8 83
-5 50 -10 67 -22 67 -11 0 -13 -7 -9 -27z"/>
<path d="M8511 8333 c-12 -48 -24 -96 -27 -105 -5 -16 2 -18 60 -18 82 0 109
21 105 78 -2 20 3 50 11 65 22 45 5 61 -67 65 l-60 3 -22 -88z"/>
<path d="M4987 8350 c-14 -11 -31 -36 -37 -56 -10 -29 -9 -39 5 -60 15 -23 22
-25 68 -22 50 4 52 5 63 44 6 22 15 54 19 73 6 30 5 32 -13 27 -11 -4 -23 -2
-27 4 -10 17 -50 12 -78 -10z"/>
<path d="M6280 8343 c-42 -38 -51 -92 -20 -123 17 -17 28 -20 48 -14 15 4 37
6 49 6 19 -1 24 8 39 73 16 68 14 107 -4 78 -5 -8 -13 -9 -22 -3 -27 17 -59
11 -90 -17z"/>
<path d="M6655 8358 c-58 -32 -76 -114 -30 -144 20 -13 31 -14 55 -6 37 13 40
-1 5 -24 -18 -12 -35 -14 -61 -9 -28 5 -35 3 -32 -7 3 -7 23 -14 46 -16 62 -5
94 31 117 131 17 70 15 109 -3 80 -5 -8 -13 -9 -22 -3 -20 13 -50 12 -75 -2z"/>
<path d="M6810 8339 c-26 -27 -31 -38 -28 -73 2 -34 8 -43 32 -55 25 -12 33
-11 62 3 35 16 49 45 17 31 -36 -15 -64 -17 -78 -5 -32 26 -17 39 48 42 59 3
62 4 65 29 7 62 -66 79 -118 28z"/>
<path d="M7350 8343 c-42 -38 -51 -92 -20 -123 17 -17 28 -20 48 -14 15 4 37
6 49 6 19 -1 24 8 39 73 16 68 14 107 -4 78 -5 -8 -13 -9 -22 -3 -27 17 -59
11 -90 -17z"/>
<path d="M7894 8336 c-69 -69 -26 -158 60 -122 87 36 89 156 2 156 -18 0 -40
-12 -62 -34z"/>
<path d="M8731 8356 c-80 -44 -59 -178 23 -147 14 6 32 8 40 5 11 -4 18 6 26
38 6 23 15 57 20 75 9 35 3 48 -16 32 -8 -7 -14 -7 -19 1 -9 14 -45 12 -74 -4z"/>
<path d="M9653 8360 c-26 -10 -63 -66 -63 -93 0 -10 11 -29 25 -43 19 -19 31
-23 52 -18 52 12 87 56 85 108 -1 49 -44 68 -99 46z"/>
<path d="M9977 8363 c-3 -5 -15 -47 -27 -93 -11 -47 -23 -93 -26 -102 -3 -12
0 -18 9 -18 9 0 17 14 21 36 6 29 11 34 24 28 22 -9 58 -7 81 6 26 14 54 77
47 106 -9 33 -48 51 -80 36 -16 -7 -27 -7 -34 0 -5 5 -12 6 -15 1z"/>
<path d="M11034 8336 c-40 -40 -45 -85 -13 -117 16 -16 27 -19 47 -14 15 4 36
8 47 9 16 1 23 14 37 71 17 72 15 94 -7 75 -9 -8 -15 -8 -20 0 -13 21 -57 10
-91 -24z"/>
<path d="M13121 8344 c-34 -29 -49 -81 -31 -113 10 -19 18 -21 67 -19 l57 4
11 44 c28 109 28 102 6 95 -11 -3 -22 -1 -26 5 -11 18 -53 11 -84 -16z"/>
<path d="M14165 8359 c-35 -20 -55 -53 -55 -90 0 -48 16 -60 78 -57 l51 2 15
63 c20 78 20 82 -1 82 -10 0 -29 2 -43 6 -14 3 -34 0 -45 -6z"/>
<path d="M14504 8336 c-26 -26 -34 -43 -34 -69 0 -45 20 -61 70 -54 46 6 51
-5 15 -29 -17 -11 -35 -14 -60 -10 -35 7 -49 -6 -19 -18 30 -12 72 -6 97 14
18 14 31 42 46 98 26 95 26 95 2 87 -11 -3 -22 -1 -26 5 -13 21 -57 10 -91
-24z"/>
<path d="M15700 8363 c-30 -11 -60 -47 -66 -80 -16 -84 100 -103 141 -23 36
70 -6 128 -75 103z"/>
<path d="M16062 8360 c-12 -5 -28 -7 -35 -4 -9 3 -20 -27 -39 -101 -15 -62
-21 -104 -15 -102 6 2 15 17 19 34 8 29 10 30 50 26 37 -4 47 -1 70 24 60 64
25 152 -50 123z"/>
<path d="M16324 8351 c-43 -26 -62 -82 -40 -116 39 -59 146 -9 146 68 0 62
-48 84 -106 48z"/>
<path d="M10793 7855 c-5 -11 -13 -33 -17 -49 -5 -22 -10 -26 -19 -17 -25 25
-91 2 -113 -40 -22 -44 -18 -86 11 -105 21 -13 31 -15 50 -6 14 6 31 9 39 6
15 -6 15 -6 51 135 18 70 17 111 -2 76z"/>
<path d="M10935 7848 c-2 -7 -15 -57 -29 -111 -21 -87 -22 -98 -8 -96 10 2 27
-1 39 -5 29 -10 86 17 103 49 17 32 17 80 0 101 -11 12 -24 15 -53 11 l-39 -5
6 34 c7 33 -9 50 -19 22z"/>
<path d="M6763 7765 c-29 -29 -34 -40 -31 -72 2 -30 9 -41 30 -51 75 -36 166
80 108 138 -30 30 -67 25 -107 -15z"/>
<path d="M7041 7786 c-54 -30 -69 -114 -26 -142 21 -13 31 -15 50 -6 14 6 31
9 39 6 11 -4 18 6 26 38 6 23 15 57 20 75 9 35 3 48 -16 32 -8 -7 -14 -7 -19
1 -9 14 -45 12 -74 -4z"/>
<path d="M8179 7785 c-31 -17 -52 -62 -47 -101 4 -37 47 -61 79 -44 31 17 38
1 9 -22 -19 -15 -33 -18 -63 -14 -29 5 -38 3 -35 -6 3 -7 23 -14 45 -16 61 -5
89 25 113 118 24 92 24 89 3 89 -10 0 -31 3 -48 6 -17 3 -41 -1 -56 -10z"/>
<path d="M8631 7774 c-34 -29 -49 -81 -31 -113 10 -19 18 -21 67 -19 l57 4 11
44 c28 109 28 102 6 95 -11 -3 -22 -1 -26 5 -11 18 -53 11 -84 -16z"/>
<path d="M9601 7764 c-45 -174 -47 -184 -31 -184 5 0 12 15 15 34 7 33 8 34
46 29 47 -7 81 13 99 56 25 61 -17 113 -74 91 -15 -5 -27 -5 -34 2 -7 7 -14
-1 -21 -28z"/>
<path d="M9808 7785 c-34 -19 -48 -44 -48 -88 0 -46 17 -58 78 -55 l51 2 15
63 c20 78 20 82 -1 82 -10 0 -29 2 -43 5 -14 3 -37 -1 -52 -9z"/>
<path d="M10319 7781 c-33 -26 -53 -73 -45 -106 7 -27 49 -50 68 -39 6 4 23 7
38 6 25 -1 28 4 39 51 6 29 14 62 17 74 5 17 2 22 -12 22 -11 0 -33 3 -49 6
-22 5 -37 1 -56 -14z"/>
<path d="M11121 7786 c-47 -26 -68 -109 -35 -137 22 -18 81 -16 101 4 21 21
11 32 -15 18 -31 -17 -60 -13 -72 8 -5 11 -10 22 -10 25 0 3 28 6 63 8 60 3
62 4 65 33 6 49 -44 70 -97 41z"/>
<path d="M11837 7793 c-3 -5 -15 -47 -27 -93 -11 -47 -23 -93 -26 -102 -3 -12
0 -18 9 -18 9 0 17 14 21 35 8 39 9 40 36 25 14 -8 29 -6 55 4 41 17 70 73 60
113 -8 32 -47 50 -79 35 -16 -7 -27 -7 -34 0 -5 5 -12 6 -15 1z"/>
<path d="M12153 7790 c-27 -11 -63 -66 -63 -97 0 -31 48 -66 80 -58 43 10 82
57 83 100 2 56 -40 79 -100 55z"/>
<path d="M12305 7767 c-34 -34 -43 -65 -29 -102 9 -24 49 -36 79 -25 33 13 33
-4 0 -26 -18 -12 -35 -14 -62 -9 -33 6 -35 5 -24 -9 8 -9 29 -16 50 -16 51 0
79 32 102 117 23 83 23 92 2 92 -10 0 -33 3 -50 7 -28 5 -38 1 -68 -29z"/>
<path d="M12621 7786 c-31 -17 -50 -53 -51 -92 0 -43 18 -55 79 -52 50 2 52 4
61 38 6 19 13 52 16 72 6 32 4 37 -12 37 -11 0 -30 2 -44 5 -14 4 -36 0 -49
-8z"/>
<path d="M13145 7769 c-28 -25 -35 -38 -35 -68 0 -46 14 -61 60 -61 49 0 92
43 93 95 2 69 -58 86 -118 34z"/>
<path d="M13744 7766 c-56 -56 -43 -126 24 -126 78 1 131 91 82 140 -30 30
-67 25 -106 -14z"/>
<path d="M21178 7566 c-16 -24 -28 -50 -28 -57 0 -14 -55 -185 -72 -224 -5
-11 -10 -33 -12 -48 -1 -15 -15 -40 -29 -57 -15 -16 -27 -37 -27 -45 0 -8 -6
-15 -12 -15 -7 0 -24 -16 -38 -34 -25 -34 -81 -66 -114 -66 -17 0 -87 47 -94
63 -2 4 -9 7 -16 7 -7 0 -21 9 -31 20 -10 11 -21 17 -25 15 -4 -3 -13 2 -20
10 -7 8 -19 15 -26 15 -8 0 -14 4 -14 9 0 10 -100 31 -154 31 -42 0 -130 -36
-121 -50 3 -5 1 -10 -3 -12 -10 -4 -80 -107 -117 -173 -106 -190 -145 -276
-145 -322 0 -25 58 -88 91 -98 33 -11 108 -84 129 -125 9 -19 23 -60 30 -90
22 -99 51 -193 97 -310 72 -184 70 -269 -7 -333 -83 -70 -219 -58 -317 29 -59
52 -119 93 -159 109 -21 9 -48 20 -59 25 -11 5 -37 14 -58 20 -116 36 -268
157 -314 250 -39 77 -53 153 -43 218 6 31 10 58 10 59 0 2 16 21 36 43 48 52
90 64 245 65 104 0 132 4 161 19 44 24 68 62 61 99 -10 51 -186 207 -251 222
-43 9 -105 -2 -128 -23 -28 -25 -99 -74 -147 -100 -83 -47 -172 -21 -214 62
-30 59 -39 168 -22 266 9 48 9 71 -1 101 -7 21 -17 39 -22 39 -4 0 -8 5 -8 11
0 14 -44 49 -89 71 -42 20 -123 23 -172 7 -78 -26 -125 -97 -144 -218 -17
-104 -28 -501 -14 -501 5 0 9 -9 9 -19 0 -13 26 -40 74 -75 125 -95 143 -116
269 -321 21 -33 55 -96 76 -140 36 -75 39 -87 43 -190 5 -120 14 -145 101
-272 42 -63 71 -136 88 -224 23 -121 28 -134 61 -160 29 -21 43 -24 113 -23
44 1 107 8 140 18 68 18 204 21 391 6 198 -15 285 -60 299 -154 5 -33 3 -55
-9 -80 -9 -19 -16 -38 -16 -43 0 -14 -66 -72 -95 -83 -17 -6 -57 -8 -102 -4
-61 6 -76 4 -92 -10 -33 -30 -73 -135 -89 -235 -15 -93 -14 -101 8 -226 12
-72 26 -171 30 -221 15 -172 75 -258 227 -324 101 -44 134 -69 166 -127 54
-102 83 -305 74 -523 -10 -231 -49 -326 -190 -473 -104 -108 -140 -174 -131
-241 4 -27 0 -65 -11 -102 -14 -50 -28 -71 -90 -134 -87 -89 -104 -119 -101
-183 2 -43 6 -52 41 -82 37 -31 59 -43 182 -96 75 -33 144 -109 98 -109 -8 0
-15 -7 -15 -15 0 -9 -12 -20 -27 -26 -16 -6 -41 -17 -58 -24 -16 -7 -41 -17
-55 -22 -57 -23 -255 -208 -255 -239 0 -7 -4 -16 -8 -20 -4 -4 -7 -14 -7 -21
0 -8 -11 -26 -25 -41 -15 -16 -25 -39 -25 -57 -1 -35 -34 -80 -51 -69 -7 4 -9
3 -6 -2 3 -6 -3 -15 -13 -22 -14 -9 -19 -8 -24 3 -3 9 -19 15 -41 15 -27 0
-35 4 -35 18 0 9 -38 54 -84 99 -62 61 -92 83 -119 88 -20 4 -41 13 -48 21 -6
8 -22 14 -36 14 -13 0 -33 5 -44 11 -16 8 -30 5 -65 -12 -25 -12 -48 -29 -52
-38 -5 -14 -27 -46 -63 -89 -38 -46 -79 -205 -79 -307 0 -111 31 -173 139
-283 32 -32 101 -154 101 -178 0 -5 12 -40 27 -79 53 -139 131 -223 226 -240
21 -4 73 -2 115 5 88 15 126 9 142 -20 6 -11 14 -52 18 -92 l7 -73 733 -3 732
-2 0 1670 c0 1458 -2 1670 -15 1670 -19 0 -38 71 -29 115 3 19 15 46 25 59 18
23 19 80 19 2058 l0 2033 -68 2 -67 3 -27 -44z"/>
<path d="M3883 7153 c-7 -3 -13 -14 -13 -25 0 -15 -4 -18 -17 -13 -10 4 -55 9
-101 10 -46 1 -88 7 -93 12 -13 13 -59 -6 -59 -24 0 -7 -8 -13 -18 -13 -19 0
-122 -98 -122 -117 0 -6 6 -21 13 -34 12 -24 14 -24 127 -19 108 5 115 6 118
27 2 14 -3 23 -15 26 -26 7 151 9 227 4 66 -5 70 -1 70 69 0 64 0 64 -29 64
-15 0 -39 8 -52 19 -13 10 -30 16 -36 14z"/>
<path d="M14341 6521 c-41 -112 -64 -278 -42 -304 19 -24 96 -18 207 14 88 26
118 31 175 27 61 -5 78 -11 161 -61 51 -30 103 -58 114 -61 49 -15 124 63 131
134 1 14 5 35 8 48 3 12 0 32 -6 44 -14 26 -49 165 -49 196 l0 22 -339 0 -338
0 -22 -59z"/>
<path d="M18390 6447 c-19 -6 -51 -28 -72 -49 -35 -35 -38 -43 -38 -93 0 -63
15 -99 70 -165 52 -63 78 -117 85 -183 9 -76 -11 -134 -80 -225 -87 -116 -101
-181 -65 -303 22 -73 51 -106 119 -135 29 -13 53 -14 126 -8 50 5 149 9 220 9
163 1 187 10 223 79 15 28 30 67 35 86 15 65 25 185 15 196 -5 7 -11 21 -13
33 -4 24 -1 19 -107 141 -216 247 -249 308 -263 480 -7 78 -23 109 -73 138
-26 15 -134 14 -182 -1z"/>
<path d="M4550 4845 c0 -138 1 -145 20 -145 18 0 20 7 20 68 0 71 16 102 51
102 30 0 39 -24 39 -97 0 -66 2 -73 20 -73 18 0 20 7 20 79 0 109 -25 138
-102 118 -28 -7 -28 -7 -28 43 0 43 -3 50 -20 50 -19 0 -20 -7 -20 -145z"/>
<path d="M6570 4983 c-23 -8 -40 -34 -40 -60 0 -14 -6 -23 -15 -23 -8 0 -15
-6 -15 -14 0 -8 7 -16 15 -20 12 -4 15 -24 15 -86 0 -73 2 -80 20 -80 18 0 20
7 20 79 0 79 0 80 27 83 17 2 29 10 31 21 3 13 -3 17 -28 17 -27 0 -31 3 -28
22 2 14 12 24 28 28 14 3 25 12 25 20 0 16 -30 23 -55 13z"/>
<path d="M8730 4845 c0 -137 1 -145 20 -145 17 0 19 8 22 77 3 75 4 78 31 88
42 14 57 -12 57 -97 0 -61 2 -68 20 -68 18 0 20 7 20 73 0 39 -6 83 -13 97
-11 22 -19 25 -65 25 l-52 -1 0 48 c0 41 -3 48 -20 48 -19 0 -20 -7 -20 -145z"/>
<path d="M11280 4940 c0 -46 -1 -49 -22 -41 -31 11 -63 2 -89 -25 -19 -20 -23
-36 -23 -81 0 -49 3 -58 28 -80 22 -19 35 -23 55 -18 14 4 43 7 64 6 l37 -1 0
145 0 145 -25 0 c-23 0 -25 -3 -25 -50z"/>
<path d="M11486 4969 c-15 -12 -26 -30 -26 -45 0 -15 -6 -24 -15 -24 -8 0 -15
-6 -15 -14 0 -8 7 -16 15 -20 12 -4 15 -24 15 -86 0 -73 2 -80 20 -80 18 0 20
7 20 80 l0 80 30 0 c23 0 30 4 30 20 0 16 -7 20 -30 20 -18 0 -30 5 -30 13 0
19 21 37 42 37 11 0 18 7 18 20 0 27 -39 27 -74 -1z"/>
<path d="M12180 4845 c0 -138 1 -145 20 -145 18 0 20 7 20 75 0 65 3 76 20 85
28 15 56 4 64 -23 3 -12 6 -48 6 -79 0 -51 2 -58 20 -58 18 0 20 7 20 79 0
109 -31 143 -107 117 -22 -7 -23 -5 -23 43 0 44 -3 51 -20 51 -19 0 -20 -7
-20 -145z"/>
<path d="M12740 4968 c-36 -19 -49 -32 -64 -71 -18 -42 -19 -53 -7 -95 15 -58
43 -89 93 -104 43 -13 106 1 128 27 22 27 -2 37 -44 20 -103 -43 -182 89 -104
172 23 25 49 27 133 12 12 -3 21 2 23 14 2 12 -7 22 -32 32 -48 20 -74 19
-126 -7z"/>
<path d="M14345 4966 c-14 -14 -25 -34 -25 -46 0 -11 -7 -20 -15 -20 -8 0 -15
-6 -15 -14 0 -8 7 -16 15 -20 12 -4 15 -24 15 -86 0 -79 0 -80 25 -80 25 0 25
1 25 80 0 79 0 80 25 80 18 0 25 5 25 20 0 16 -7 20 -30 20 -16 0 -30 3 -30 6
0 18 24 44 41 44 14 0 19 5 17 18 -5 27 -44 26 -73 -2z"/>
<path d="M4300 4960 c0 -17 7 -20 45 -20 l45 0 0 -120 c0 -113 1 -120 20 -120
19 0 20 7 20 120 l0 120 45 0 c38 0 45 3 45 20 0 19 -7 20 -110 20 -103 0
-110 -1 -110 -20z"/>
<path d="M6730 4840 c0 -132 1 -140 20 -140 18 0 20 8 22 98 l3 97 44 -77 c56
-96 70 -99 110 -20 56 110 60 110 61 0 0 -91 1 -98 20 -98 19 0 20 7 20 140
l0 140 -24 0 c-21 0 -33 -14 -73 -90 -26 -49 -50 -90 -53 -90 -3 0 -27 41 -54
90 -40 74 -53 90 -73 90 l-23 0 0 -140z"/>
<path d="M8286 4895 c-36 -47 -66 -94 -66 -105 0 -18 7 -20 65 -20 l65 0 0
-35 c0 -28 4 -35 20 -35 16 0 20 7 20 35 0 28 4 35 20 35 11 0 20 6 20 14 0 7
-9 16 -20 19 -18 5 -20 14 -20 91 0 78 -2 86 -19 86 -13 0 -43 -30 -85 -85z"/>
<path d="M8497 4947 c-58 -54 -62 -149 -9 -208 43 -47 132 -57 182 -19 19 15
22 22 13 31 -9 9 -20 8 -48 -5 -45 -21 -87 -14 -114 20 -46 59 -30 140 33 171
32 15 39 15 75 1 33 -13 42 -14 51 -3 19 23 -27 45 -92 45 -50 0 -60 -4 -91
-33z"/>
<path d="M10350 4840 l0 -140 78 0 c82 0 112 14 126 58 8 24 -9 71 -28 78 -13
5 -12 10 5 33 14 20 18 35 13 55 -10 42 -40 56 -121 56 l-73 0 0 -140z"/>
<path d="M13730 4840 l0 -140 25 0 c23 0 25 3 25 49 l0 48 46 6 c61 6 94 38
94 89 0 28 -7 46 -25 63 -21 22 -33 25 -95 25 l-70 0 0 -140z"/>
<path d="M6107 4964 c-4 -4 -7 -20 -7 -36 0 -18 -5 -28 -14 -28 -23 0 -31 -22
-13 -35 13 -9 17 -28 17 -74 0 -48 4 -65 20 -81 23 -23 29 -24 64 -10 34 12
25 43 -10 34 -24 -6 -24 -5 -24 60 0 64 1 66 25 66 18 0 25 5 25 20 0 15 -7
20 -24 20 -20 0 -25 6 -28 32 -3 31 -17 45 -31 32z"/>
<path d="M12057 4964 c-4 -4 -7 -17 -7 -29 0 -13 -10 -30 -22 -39 -22 -15 -22
-16 -5 -29 13 -11 17 -29 17 -76 0 -84 36 -120 90 -91 28 15 15 42 -16 34 -24
-6 -24 -5 -24 60 0 64 1 66 25 66 18 0 25 5 25 20 0 15 -7 20 -24 20 -20 0
-25 6 -28 32 -3 31 -17 45 -31 32z"/>
<path d="M13067 4964 c-4 -4 -7 -20 -7 -36 0 -18 -5 -28 -14 -28 -23 0 -31
-22 -13 -35 13 -9 17 -28 17 -74 0 -48 4 -65 20 -81 23 -23 29 -24 64 -10 34
12 25 43 -10 34 -24 -6 -24 -5 -24 60 0 64 1 66 25 66 18 0 25 5 25 20 0 15
-7 20 -24 20 -20 0 -25 6 -28 32 -3 31 -17 45 -31 32z"/>
<path d="M4824 4902 c-66 -10 -95 -123 -45 -176 13 -14 39 -28 57 -32 37 -7
89 14 89 36 0 15 -7 15 -66 3 -28 -5 -59 17 -59 43 0 11 15 14 64 14 36 0 67
4 70 8 7 12 -12 80 -25 87 -18 12 -64 21 -85 17z"/>
<path d="M5355 4902 c-11 -2 -26 -9 -32 -14 -9 -7 -17 -7 -26 1 -7 6 -39 10
-70 9 l-57 -2 0 -98 c0 -91 1 -98 20 -98 18 0 20 7 20 74 0 81 16 110 48 89
13 -8 18 -28 20 -87 3 -73 4 -76 27 -76 23 0 24 3 27 76 2 59 7 79 20 87 32
21 48 -8 48 -89 0 -67 2 -74 20 -74 18 0 20 7 20 83 0 68 -3 87 -17 99 -23 19
-43 25 -68 20z"/>
<path d="M5558 4896 c-16 -9 -30 -11 -33 -5 -4 5 -13 9 -21 9 -11 0 -14 -24
-14 -135 0 -128 1 -135 20 -135 16 0 20 7 20 36 0 34 1 35 29 29 66 -14 119
47 108 127 -9 66 -59 100 -109 74z"/>
<path d="M5755 4901 c-43 -13 -61 -29 -48 -42 9 -9 19 -9 42 1 36 14 61 1 61
-31 0 -15 -7 -19 -34 -19 -39 0 -86 -33 -86 -61 0 -10 9 -28 21 -40 17 -17 28
-20 53 -14 17 4 46 7 65 6 l33 -1 -4 80 c-2 63 -7 83 -23 99 -24 23 -53 31
-80 22z"/>
<path d="M5953 4898 c-41 -11 -64 -45 -65 -97 0 -48 23 -88 59 -102 49 -19
123 15 95 43 -9 9 -15 9 -24 0 -32 -32 -88 2 -88 54 0 59 43 89 90 64 23 -12
37 4 21 24 -16 19 -50 24 -88 14z"/>
<path d="M6353 4898 c-39 -10 -63 -50 -63 -103 0 -47 14 -71 52 -91 70 -36
138 11 138 96 0 77 -53 118 -127 98z"/>
<path d="M7133 4898 c-54 -14 -80 -91 -52 -152 24 -52 126 -71 160 -30 19 24
-2 36 -38 22 -38 -14 -77 0 -86 31 -5 20 -1 21 64 21 l69 0 0 33 c-1 60 -52
93 -117 75z"/>
<path d="M7333 4899 c-37 -11 -50 -26 -34 -42 8 -8 18 -7 36 3 19 10 31 11 43
3 24 -14 22 -47 -3 -51 -70 -10 -95 -28 -95 -67 0 -38 42 -61 86 -47 18 5 43
8 54 5 19 -5 20 0 20 79 0 68 -3 88 -17 100 -25 22 -53 27 -90 17z"/>
<path d="M11003 4899 c-37 -11 -50 -26 -34 -42 8 -8 18 -7 36 3 31 17 58 4 63
-29 3 -18 -2 -21 -28 -21 -80 0 -122 -69 -64 -106 20 -14 32 -15 60 -6 18 5
43 8 54 5 19 -5 20 0 20 75 0 109 -30 143 -107 121z"/>
<path d="M11633 4898 c-43 -11 -63 -43 -63 -100 0 -68 32 -103 95 -103 64 0
95 35 95 104 0 78 -53 119 -127 99z"/>
<path d="M12443 4898 c-81 -21 -84 -165 -4 -198 36 -14 93 -6 112 16 19 24 -2
36 -38 22 -38 -14 -77 0 -86 31 -5 20 -1 21 64 21 l69 0 0 29 c0 35 -32 77
-62 83 -13 2 -38 0 -55 -4z"/>
<path d="M14003 4898 c-37 -10 -63 -50 -63 -98 0 -81 69 -127 144 -96 32 13
36 18 26 31 -9 11 -17 12 -30 5 -31 -17 -68 -11 -84 12 -9 12 -16 26 -16 30 0
4 30 8 68 10 64 3 67 4 70 29 4 31 -29 75 -60 81 -13 2 -38 0 -55 -4z"/>
<path d="M14990 4894 c-20 -9 -37 -11 -44 -5 -6 5 -37 9 -69 9 l-57 -1 0 -98
c0 -92 1 -99 20 -99 18 0 20 7 20 75 0 65 3 76 21 85 40 22 49 7 49 -80 0 -78
1 -80 25 -80 23 0 24 3 27 76 2 59 7 79 20 87 32 21 48 -8 48 -89 0 -72 1 -74
25 -74 24 0 25 2 25 64 0 117 -36 161 -110 130z"/>
<path d="M15183 4899 c-37 -11 -50 -26 -35 -41 8 -8 20 -7 42 2 27 11 34 11
47 -3 22 -21 9 -47 -22 -47 -75 0 -114 -70 -59 -106 20 -14 32 -15 60 -6 18 5
43 8 54 5 19 -5 20 0 20 79 0 68 -3 88 -17 100 -25 22 -53 27 -90 17z"/>
<path d="M15412 4899 c-13 -5 -35 -6 -48 -3 l-24 6 0 -101 c0 -94 1 -101 20
-101 18 0 20 7 20 75 0 65 3 76 20 85 28 15 56 4 64 -23 3 -12 6 -48 6 -79 0
-51 2 -58 20 -58 18 0 20 7 20 79 0 61 -4 83 -17 99 -23 26 -51 33 -81 21z"/>
<path d="M15613 4902 c-34 -5 -73 -58 -73 -98 0 -79 57 -127 124 -104 40 13
48 21 37 38 -5 9 -14 9 -39 0 -42 -16 -66 -2 -70 42 -7 71 27 107 76 81 15 -8
23 -7 31 3 9 10 9 16 1 21 -19 12 -65 21 -87 17z"/>
<path d="M15794 4902 c-69 -11 -95 -125 -41 -179 22 -23 36 -28 73 -27 50 1
87 25 67 45 -8 8 -16 8 -31 0 -29 -15 -58 -14 -76 5 -33 32 -20 44 48 44 36 0
67 4 70 8 7 12 -12 80 -25 87 -18 12 -64 21 -85 17z"/>
<path d="M7498 4889 c-12 -6 -18 -22 -18 -45 0 -31 4 -36 48 -57 63 -30 63
-52 -2 -52 -59 0 -71 -18 -23 -34 44 -15 84 -5 104 25 25 38 10 70 -42 90 -59
22 -58 49 0 50 58 1 62 3 41 19 -23 17 -83 19 -108 4z"/>
<path d="M7650 4820 c0 -73 2 -83 26 -107 20 -20 31 -24 52 -18 15 4 42 7 60
7 l32 -1 0 100 c0 92 -1 99 -20 99 -18 0 -20 -7 -20 -75 0 -71 -1 -76 -26 -87
-45 -21 -59 -2 -62 86 -3 68 -5 76 -22 76 -18 0 -20 -7 -20 -80z"/>
<path d="M8045 4875 c-20 -19 -25 -34 -25 -75 0 -77 35 -107 120 -100 30 2 55
24 46 39 -5 8 -13 8 -26 1 -44 -23 -100 1 -100 43 0 14 11 17 70 17 39 0 70 4
70 9 0 23 -24 73 -40 81 -35 19 -89 12 -115 -15z"/>
<path d="M8968 4889 c-27 -15 -23 -43 5 -34 57 17 65 17 77 -4 14 -27 5 -41
-26 -41 -14 0 -38 -7 -54 -15 -25 -13 -30 -22 -30 -51 0 -28 5 -36 27 -45 17
-6 36 -6 53 0 15 5 39 7 53 4 l27 -5 0 65 c0 68 -12 116 -33 129 -17 11 -79 9
-99 -3z"/>
<path d="M9140 4800 c0 -93 1 -100 20 -100 18 0 20 7 20 68 0 71 16 102 51
102 30 0 39 -24 39 -97 0 -66 2 -73 20 -73 18 0 20 7 20 83 0 69 -3 87 -18
100 -21 19 -64 22 -93 7 -13 -7 -19 -7 -19 0 0 5 -9 10 -20 10 -19 0 -20 -7
-20 -100z"/>
<path d="M9371 4881 c-24 -24 -27 -49 -7 -77 10 -13 11 -23 4 -31 -6 -7 -8
-22 -5 -33 3 -10 -1 -24 -9 -31 -41 -34 4 -79 79 -79 38 0 53 5 72 25 14 13
25 31 25 39 0 25 -30 46 -65 46 -18 0 -40 3 -49 6 -26 10 -18 24 14 24 39 0
84 42 77 71 -3 11 1 23 11 28 25 14 13 19 -60 27 -59 6 -68 4 -87 -15z"/>
<path d="M9583 4885 c-46 -32 -48 -129 -4 -169 22 -20 88 -24 120 -6 23 12 23
38 0 31 -65 -19 -109 -3 -109 40 0 17 7 19 65 19 65 0 65 0 65 28 0 61 -82 95
-137 57z"/>
<path d="M9863 4885 c-26 -18 -44 -76 -36 -115 14 -71 109 -98 162 -46 21 22
26 36 26 77 0 43 -4 54 -28 75 -33 28 -91 32 -124 9z"/>
<path d="M10060 4800 c0 -93 1 -100 20 -100 17 0 19 8 22 77 3 75 4 78 31 87
40 14 51 -3 55 -89 4 -66 7 -75 23 -75 16 0 19 8 19 58 0 65 -14 122 -32 134
-18 11 -66 10 -89 -2 -13 -7 -19 -7 -19 0 0 5 -7 10 -15 10 -12 0 -15 -18 -15
-100z"/>
<path d="M10784 4885 c-35 -24 -49 -70 -36 -114 17 -54 45 -76 98 -76 48 0 87
26 67 46 -8 8 -16 8 -31 0 -29 -15 -58 -14 -76 5 -32 31 -20 44 42 44 32 0 63
5 69 11 14 14 -1 70 -24 87 -23 16 -84 15 -109 -3z"/>
<path d="M13169 4878 c5 -13 23 -54 40 -92 32 -71 32 -73 6 -138 -5 -14 -2
-18 13 -18 16 0 30 24 71 119 70 163 66 151 43 151 -15 0 -27 -16 -48 -65 -15
-36 -30 -62 -34 -58 -4 4 -18 34 -30 66 -19 46 -28 57 -47 57 -19 0 -21 -3
-14 -22z"/>
<path d="M13486 4884 c-9 -8 -16 -29 -16 -45 0 -25 7 -32 48 -52 63 -30 63
-52 0 -52 -54 0 -64 -14 -24 -33 56 -28 126 17 112 72 -4 17 -19 29 -51 42
-59 22 -58 49 0 50 58 1 62 3 41 19 -26 20 -90 19 -110 -1z"/>
<path d="M14464 4877 c-23 -20 -28 -32 -28 -75 -1 -40 4 -56 22 -75 30 -32 65
-41 108 -27 66 22 84 121 33 176 -31 33 -97 33 -135 1z"/>
<path d="M6876 4520 c-117 -37 -131 -217 -21 -270 49 -24 74 -25 119 -6 39 16
53 33 38 48 -8 8 -21 6 -45 -6 -75 -35 -137 9 -137 96 0 67 30 98 94 98 25 0
48 -4 51 -10 9 -15 32 -12 39 5 12 33 -80 63 -138 45z"/>
<path d="M4320 4381 l0 -141 25 0 c24 0 24 1 27 95 l3 95 40 -72 c54 -97 67
-96 120 1 l40 75 3 -97 c2 -89 4 -97 22 -97 19 0 20 8 20 140 0 139 0 140 -22
140 -19 0 -33 -18 -71 -91 -27 -50 -52 -88 -55 -84 -3 3 -27 43 -52 88 -38 68
-50 83 -73 85 l-27 3 0 -140z"/>
<path d="M6597 4503 c-4 -3 -7 -14 -7 -24 0 -10 -10 -28 -22 -39 -21 -20 -22
-22 -6 -34 13 -9 18 -31 20 -81 3 -62 6 -71 28 -83 31 -17 92 0 71 21 -6 6
-21 12 -34 12 -20 0 -22 6 -25 63 l-3 62 31 0 c23 0 30 4 30 20 0 16 -7 20
-30 20 -28 0 -30 3 -30 35 0 33 -8 43 -23 28z"/>
<path d="M7970 4480 c0 -11 -10 -30 -22 -42 -19 -19 -20 -22 -5 -33 13 -9 17
-28 17 -78 0 -59 3 -68 24 -82 30 -20 79 -11 74 14 -2 9 -13 16 -28 16 -24 0
-25 3 -28 63 l-3 62 31 0 c23 0 30 4 30 20 0 16 -7 20 -30 20 -27 0 -30 3 -30
30 0 20 -5 30 -15 30 -8 0 -15 -9 -15 -20z"/>
<path d="M4733 4438 c-42 -11 -66 -47 -65 -100 1 -78 72 -128 138 -97 30 15
41 47 14 40 -50 -13 -72 -12 -90 4 -37 34 -25 45 45 45 76 0 87 12 62 65 -19
39 -58 55 -104 43z"/>
<path d="M4935 4441 c-43 -13 -61 -29 -48 -42 9 -9 19 -9 42 1 36 14 61 1 61
-31 0 -15 -7 -19 -34 -19 -39 0 -86 -33 -86 -61 0 -10 9 -28 21 -40 17 -17 28
-20 53 -14 17 4 46 7 65 6 l33 -1 -4 80 c-2 63 -7 83 -23 99 -24 23 -53 31
-80 22z"/>
<path d="M5125 4442 c-49 -10 -72 -64 -40 -95 8 -9 31 -21 50 -27 25 -8 35
-17 33 -28 -3 -13 -15 -17 -51 -17 -25 0 -47 -4 -48 -10 -2 -13 40 -35 67 -35
35 0 74 37 74 72 0 26 -6 32 -50 51 -63 26 -65 52 -5 53 56 1 59 2 46 18 -13
16 -47 24 -76 18z"/>
<path d="M5683 4442 c-34 -5 -73 -58 -73 -97 0 -50 18 -82 58 -101 29 -13 41
-14 73 -5 42 13 56 28 42 42 -6 6 -19 6 -36 -2 -34 -15 -76 -4 -86 24 -8 21
-6 22 58 27 62 5 66 7 69 31 6 50 -46 90 -105 81z"/>
<path d="M6015 4442 c-11 -2 -26 -9 -32 -14 -9 -7 -17 -7 -26 1 -7 6 -39 10
-70 9 l-57 -2 0 -98 c0 -91 1 -98 20 -98 18 0 20 7 20 74 0 81 16 110 48 89
13 -8 18 -28 20 -87 3 -73 4 -76 27 -76 23 0 24 3 27 76 2 59 7 79 20 87 32
21 48 -8 48 -89 0 -67 2 -74 20 -74 18 0 20 7 20 83 0 68 -3 87 -17 99 -23 19
-43 25 -68 20z"/>
<path d="M6204 4442 c-66 -10 -95 -123 -45 -176 13 -14 39 -28 57 -32 37 -7
89 14 89 36 0 15 -7 15 -66 3 -28 -5 -59 17 -59 43 0 11 15 14 64 14 36 0 67
4 70 8 7 12 -12 80 -25 87 -18 12 -64 21 -85 17z"/>
<path d="M6435 4442 c-11 -2 -26 -9 -32 -14 -9 -7 -13 -7 -13 1 0 6 -9 11 -20
11 -19 0 -20 -7 -20 -100 l0 -100 25 0 c24 0 25 2 25 75 0 70 2 76 25 87 42
19 55 -3 55 -88 0 -73 0 -74 26 -74 l27 0 -5 80 c-6 101 -32 135 -93 122z"/>
<path d="M7102 4439 c-31 -9 -51 -33 -39 -45 3 -3 22 0 41 7 31 11 38 11 52
-3 22 -22 11 -48 -21 -48 -14 0 -39 -7 -55 -15 -64 -33 -17 -123 50 -98 16 6
40 8 54 6 l26 -5 0 80 c0 109 -30 143 -108 121z"/>
<path d="M7323 4435 c-18 -8 -33 -10 -33 -5 0 6 -9 10 -20 10 -19 0 -20 -7
-20 -135 l0 -135 25 0 c22 0 25 4 25 35 0 35 1 36 33 30 46 -9 93 30 102 84 8
51 -15 108 -50 121 -15 6 -27 10 -28 10 -1 -1 -17 -7 -34 -15z"/>
<path d="M7513 4439 c-37 -11 -50 -26 -34 -42 8 -8 18 -7 36 3 19 10 31 11 43
3 24 -14 22 -47 -3 -51 -70 -10 -95 -28 -95 -67 0 -38 42 -61 86 -47 18 5 43
8 54 5 19 -5 20 0 20 79 0 68 -3 88 -17 100 -25 22 -53 27 -90 17z"/>
<path d="M5240 4375 c0 -112 41 -166 104 -137 12 5 34 8 49 5 l27 -5 0 101 0
101 -25 0 c-24 0 -25 -2 -25 -74 0 -80 -11 -100 -52 -94 -22 3 -23 8 -26 86
-3 80 -3 82 -27 82 -24 0 -25 -3 -25 -65z"/>
<path d="M7687 4422 c-58 -64 -37 -163 40 -186 24 -8 93 17 93 33 0 16 -21 24
-33 12 -16 -16 -53 -14 -71 5 -23 22 -21 87 3 108 14 13 28 16 54 11 40 -8 58
8 28 24 -31 17 -96 13 -114 -7z"/>
<path d="M8070 4437 c0 -2 18 -45 40 -96 l40 -92 -20 -39 -20 -40 23 0 c21 0
31 15 78 126 30 70 56 131 58 136 2 5 -7 8 -20 6 -17 -2 -29 -18 -50 -68 l-27
-65 -31 68 c-23 51 -35 67 -51 67 -11 0 -20 -1 -20 -3z"/>
<path d="M18835 4331 c-63 -16 -145 -64 -157 -93 -7 -15 -16 -28 -20 -28 -5 0
-8 -21 -8 -46 0 -42 4 -51 43 -88 23 -22 65 -57 91 -76 27 -19 62 -51 78 -71
27 -34 64 -117 75 -169 3 -14 11 -32 18 -40 7 -8 14 -21 17 -29 6 -20 33 -23
112 -10 152 25 302 94 373 173 185 205 74 385 -281 456 -102 21 -295 32 -341
21z"/>
<path d="M17475 4085 c-5 -2 -36 -9 -67 -15 l-58 -11 0 -358 0 -359 31 -13
c46 -18 89 -58 89 -80 0 -22 -28 -69 -40 -69 -5 0 -24 -14 -44 -32 l-36 -32 0
-286 0 -286 45 -22 c58 -28 108 -28 154 0 20 12 38 25 41 29 20 27 160 70 160
48 0 -5 6 -9 13 -9 22 0 54 -43 68 -90 7 -25 16 -49 20 -55 4 -5 10 -28 13
-49 4 -22 10 -44 15 -50 4 -6 12 -24 16 -41 5 -16 10 -37 13 -45 11 -35 13
-168 2 -202 -18 -60 -83 -109 -137 -103 -16 2 -36 -1 -46 -7 -11 -6 -23 -6
-30 0 -7 5 -32 10 -57 11 -57 2 -114 -25 -184 -88 -29 -26 -65 -51 -79 -55
l-27 -6 0 -110 c0 -61 4 -110 9 -110 19 0 77 -67 105 -122 59 -117 133 -167
311 -211 146 -37 194 -41 253 -23 67 19 100 43 222 156 113 105 175 152 235
180 51 23 155 43 169 31 6 -4 35 -14 63 -21 29 -6 63 -20 75 -29 36 -27 77
-25 88 3 4 13 18 26 30 29 18 5 20 8 9 26 -11 17 -10 23 5 40 15 16 17 31 12
88 -3 37 -13 104 -21 148 -9 44 -15 115 -15 157 2 90 9 112 91 245 57 94 56
147 -3 190 -47 33 -128 133 -155 191 -47 100 -39 229 23 371 13 29 24 60 24
68 0 8 9 34 20 58 34 74 46 152 39 255 -8 124 -11 134 -40 138 -13 2 -29 8
-35 13 -6 5 -50 2 -105 -7 -52 -8 -132 -17 -179 -20 -81 -5 -87 -4 -128 22
-56 38 -62 57 -77 262 -8 120 -44 162 -135 162 -34 0 -47 -6 -75 -36 -39 -41
-59 -97 -75 -207 -18 -124 -19 -129 -45 -182 -33 -68 -106 -140 -182 -177 -55
-27 -68 -30 -105 -22 -38 8 -43 13 -57 54 -13 38 -15 72 -9 195 12 245 -17
369 -102 435 -32 26 -91 43 -115 35z m835 -980 c34 -18 92 -111 110 -177 17
-63 7 -115 -36 -196 -42 -81 -79 -143 -93 -159 -6 -7 -11 -16 -11 -22 0 -5
-19 -12 -42 -16 -62 -11 -74 9 -112 180 -40 178 -2 321 101 381 46 28 47 28
83 9z"/>
<path d="M4260 3710 l0 -100 54 0 c65 0 102 25 112 76 13 73 -38 124 -125 124
l-41 0 0 -100z"/>
<path d="M6710 3777 c0 -31 -2 -33 -28 -29 -36 5 -66 -28 -66 -73 0 -50 18
-65 75 -63 l49 1 0 98 c0 81 -3 99 -15 99 -10 0 -15 -10 -15 -33z"/>
<path d="M7530 3780 c0 -26 -4 -30 -28 -30 -40 0 -62 -19 -68 -62 -5 -31 -2
-41 20 -63 14 -14 31 -23 38 -19 6 4 24 7 39 6 l29 -1 0 100 c0 81 -3 99 -15
99 -10 0 -15 -10 -15 -30z"/>
<path d="M7950 3777 c0 -31 -2 -33 -28 -29 -36 5 -66 -28 -66 -73 0 -50 18
-65 75 -63 l49 2 0 98 c0 80 -3 98 -15 98 -10 0 -15 -10 -15 -33z"/>
<path d="M10270 3775 c0 -33 -1 -34 -29 -29 -60 12 -98 -79 -50 -121 17 -16
25 -17 50 -8 16 6 29 7 29 2 0 -5 5 -9 10 -9 6 0 10 40 10 100 0 60 -4 100
-10 100 -5 0 -10 -16 -10 -35z"/>
<path d="M11340 3775 c0 -32 -2 -34 -28 -29 -52 11 -90 -75 -53 -120 16 -19
52 -21 69 -4 9 9 12 9 12 0 0 -7 5 -12 10 -12 6 0 10 40 10 100 0 60 -4 100
-10 100 -5 0 -10 -16 -10 -35z"/>
<path d="M12710 3774 c0 -31 -3 -35 -20 -29 -30 9 -55 -2 -68 -31 -17 -36 -15
-58 7 -85 17 -22 22 -23 50 -12 17 6 31 7 31 2 0 -5 5 -9 10 -9 6 0 10 40 10
100 0 60 -4 100 -10 100 -5 0 -10 -16 -10 -36z"/>
<path d="M14820 3775 c0 -33 -1 -34 -29 -29 -60 12 -98 -79 -50 -121 17 -16
25 -17 50 -8 16 6 29 7 29 2 0 -5 5 -9 10 -9 6 0 10 40 10 100 0 60 -4 100
-10 100 -5 0 -10 -16 -10 -35z"/>
<path d="M9030 3705 l0 -95 43 0 c23 0 53 7 65 16 25 18 29 56 7 74 -14 12
-14 15 0 30 32 35 -6 70 -74 70 l-41 0 0 -95z"/>
<path d="M4950 3730 c-42 -42 -14 -120 43 -120 40 0 53 9 66 43 27 71 -56 130
-109 77z"/>
<path d="M5090 3653 c0 -76 3 -93 15 -93 9 0 15 9 15 24 0 21 5 25 31 24 51
-2 82 57 57 109 -12 25 -18 28 -66 29 l-52 1 0 -94z"/>
<path d="M5460 3730 c-6 -12 -8 -31 -4 -43 9 -26 6 -58 -7 -71 -36 -38 59 -77
105 -43 11 8 17 23 14 38 -2 18 -10 25 -33 27 -51 5 -63 15 -26 21 19 3 37 13
41 21 4 8 12 25 18 36 10 20 8 22 -20 28 -53 11 -77 7 -88 -14z"/>
<path d="M5727 3732 c-23 -25 -22 -85 1 -105 25 -22 75 -21 95 1 23 25 22 85
-1 105 -25 22 -75 21 -95 -1z"/>
<path d="M5870 3730 c-6 -12 -8 -31 -4 -43 9 -26 6 -58 -7 -71 -36 -38 59 -77
105 -43 11 8 17 23 14 38 -2 18 -10 25 -33 27 -51 5 -63 15 -26 21 19 3 37 13
41 21 4 8 12 25 18 36 10 20 8 22 -20 28 -53 11 -77 7 -88 -14z"/>
<path d="M6488 3733 c-24 -27 -30 -60 -17 -85 16 -31 28 -38 66 -38 37 0 63
29 63 72 0 57 -77 91 -112 51z"/>
<path d="M8457 3732 c-23 -25 -22 -85 1 -105 25 -22 75 -21 95 1 23 25 22 85
-1 105 -25 22 -75 21 -95 -1z"/>
<path d="M10960 3655 c0 -78 3 -95 15 -95 10 0 15 10 15 29 0 25 3 28 25 23
37 -7 65 23 65 69 0 57 -45 89 -79 57 -11 -10 -14 -10 -18 0 -13 36 -23 1 -23
-83z"/>
<path d="M14280 3655 c0 -57 4 -95 10 -95 6 0 10 13 10 30 0 27 2 29 28 24 49
-10 84 44 63 99 -13 34 -35 43 -67 29 -15 -7 -24 -8 -24 -2 0 6 -4 10 -10 10
-6 0 -10 -38 -10 -95z"/>
<path d="M15106 3728 c-9 -13 -12 -27 -7 -37 9 -18 7 -58 -4 -85 -10 -23 17
-46 52 -46 23 0 63 31 63 50 0 14 -35 30 -64 30 -14 0 -26 5 -26 10 0 6 10 10
23 10 29 0 47 18 47 47 0 13 6 24 13 24 14 2 -39 16 -65 18 -9 0 -24 -9 -32
-21z"/>
<path d="M6550 3425 c0 -33 -1 -34 -29 -29 -59 12 -94 -66 -52 -117 17 -22 22
-23 50 -12 17 6 31 7 31 2 0 -5 5 -9 10 -9 6 0 10 40 10 100 0 60 -4 100 -10
100 -5 0 -10 -16 -10 -35z"/>
<path d="M7480 3425 c0 -33 -1 -34 -29 -29 -59 12 -94 -66 -52 -117 17 -22 22
-23 50 -12 17 6 31 7 31 2 0 -5 5 -9 10 -9 6 0 10 40 10 100 0 60 -4 100 -10
100 -5 0 -10 -16 -10 -35z"/>
<path d="M12400 3415 c0 -33 -2 -34 -28 -29 -39 8 -62 -17 -62 -65 0 -48 13
-58 73 -58 l47 0 0 94 c0 76 -3 93 -15 93 -10 0 -15 -11 -15 -35z"/>
<path d="M11870 3350 c0 -73 3 -90 15 -90 10 0 15 11 15 35 0 44 14 44 42 0
13 -19 31 -35 41 -35 23 0 22 5 -8 44 -22 29 -23 35 -10 46 18 15 20 61 3 78
-7 7 -31 12 -55 12 l-43 0 0 -90z"/>
<path d="M7978 3389 c-19 -11 -24 -54 -8 -64 6 -4 7 -12 3 -18 -4 -7 -8 -16
-8 -22 -1 -5 -5 -19 -10 -29 -18 -40 66 -64 98 -28 34 37 16 62 -44 62 -16 0
-29 5 -29 10 0 6 10 10 23 10 32 0 46 12 56 47 8 29 7 31 -21 37 -38 8 -39 7
-60 -5z"/>
<path d="M9110 3305 c0 -57 4 -95 10 -95 6 0 10 13 10 30 0 27 2 29 29 24 59
-12 94 66 52 117 -17 22 -22 23 -50 12 -17 -6 -31 -7 -31 -2 0 5 -4 9 -10 9
-6 0 -10 -38 -10 -95z"/>
<path d="M10160 3305 c0 -57 4 -95 10 -95 6 0 10 14 10 30 0 27 3 30 24 24 36
-9 64 11 72 51 11 62 -46 111 -84 73 -9 -9 -12 -9 -12 0 0 7 -4 12 -10 12 -6
0 -10 -38 -10 -95z"/>
<path d="M10750 3305 c0 -57 4 -95 10 -95 6 0 10 13 10 30 0 27 2 29 28 24 36
-7 61 13 68 56 4 27 1 42 -14 60 -18 23 -23 24 -51 13 -17 -6 -31 -7 -31 -2 0
5 -4 9 -10 9 -6 0 -10 -38 -10 -95z"/>
<path d="M5757 2822 c-10 -10 -17 -23 -17 -29 0 -6 -6 -13 -12 -16 -10 -4 -10
-7 0 -18 6 -7 12 -37 12 -66 0 -40 4 -53 15 -53 11 0 15 13 15 54 0 49 2 54
25 58 33 7 35 3 35 -59 0 -40 4 -53 15 -53 12 0 15 13 15 55 0 48 2 55 20 55
11 0 20 7 20 15 0 8 -9 15 -20 15 -11 0 -20 5 -20 11 0 6 9 13 20 16 25 7 26
33 2 33 -21 0 -52 -29 -52 -48 0 -7 -13 -12 -30 -12 -34 0 -41 19 -10 27 11 3
20 12 20 19 0 20 -34 17 -53 -4z"/>
<path d="M6652 2810 c-17 -30 -38 -36 -99 -31 -22 2 -23 -2 -23 -69 0 -56 3
-70 15 -70 11 0 15 11 15 43 0 53 8 64 45 68 30 4 30 4 33 -53 3 -50 6 -58 22
-58 17 0 20 7 20 55 0 42 3 55 15 55 8 0 15 7 15 15 0 8 -9 15 -20 15 -13 0
-18 5 -14 15 4 8 12 15 20 15 8 0 14 7 14 15 0 27 -40 17 -58 -15z"/>
<path d="M10300 2805 c0 -33 -2 -34 -28 -29 -51 10 -86 -49 -60 -103 15 -31
50 -42 74 -23 10 9 14 9 14 1 0 -6 5 -11 10 -11 6 0 10 40 10 100 0 60 -4 100
-10 100 -5 0 -10 -16 -10 -35z"/>
<path d="M14590 2805 c0 -33 -1 -34 -29 -29 -21 5 -34 1 -50 -15 -51 -51 6
-158 58 -108 11 10 14 10 18 0 14 -37 23 -2 23 87 0 60 -4 100 -10 100 -5 0
-10 -16 -10 -35z"/>
<path d="M15080 2805 c0 -33 -1 -34 -29 -29 -60 12 -98 -79 -50 -121 17 -16
25 -17 50 -8 16 6 29 7 29 2 0 -5 5 -9 10 -9 6 0 10 40 10 100 0 60 -4 100
-10 100 -5 0 -10 -16 -10 -35z"/>
<path d="M15820 2805 c0 -32 -2 -34 -27 -29 -37 7 -62 -13 -69 -56 -4 -27 -1
-42 14 -60 18 -23 23 -24 51 -13 17 6 31 7 31 2 0 -5 5 -9 10 -9 6 0 10 40 10
100 0 60 -4 100 -10 100 -5 0 -10 -16 -10 -35z"/>
<path d="M9660 2735 l0 -95 48 0 c35 0 54 5 65 18 21 23 22 56 2 72 -14 12
-14 15 0 30 32 35 -6 70 -74 70 l-41 0 0 -95z"/>
<path d="M12030 2817 c-52 -26 -64 -112 -21 -151 11 -10 39 -20 63 -23 24 -3
53 -15 65 -26 30 -27 43 -14 15 16 -20 22 -20 22 -1 46 63 77 -31 184 -121
138z m94 -26 c24 -27 25 -85 1 -111 -22 -24 -71 -26 -97 -3 -23 21 -24 89 -1
115 22 24 75 23 97 -1z"/>
<path d="M4566 2764 c-18 -17 -20 -32 -7 -52 5 -8 4 -31 -2 -53 -12 -48 2 -69
45 -69 36 0 63 14 72 36 10 25 -12 44 -50 44 -40 0 -46 17 -8 22 15 2 30 10
34 18 4 8 12 25 18 36 10 20 8 22 -20 28 -47 9 -65 7 -82 -10z"/>
<path d="M4842 2768 c-6 -8 -10 -36 -8 -64 1 -27 -2 -57 -8 -67 -23 -39 73
-66 108 -31 34 33 15 64 -39 64 -13 0 -27 5 -30 10 -3 6 4 10 17 10 13 0 28 4
35 8 12 8 36 62 30 68 -2 2 -24 7 -48 10 -32 4 -48 2 -57 -8z"/>
<path d="M5203 2768 c-7 -8 -12 -36 -11 -64 1 -27 -2 -57 -6 -67 -20 -45 72
-67 110 -26 25 28 8 53 -40 57 -40 4 -50 22 -12 22 25 0 42 15 48 40 2 8 7 18
13 22 15 11 2 17 -46 24 -32 4 -48 2 -56 -8z"/>
<path d="M6240 2684 c0 -77 3 -94 15 -94 9 0 15 9 15 24 0 21 5 25 32 24 57
-2 88 69 53 120 -13 18 -25 21 -65 21 l-50 -2 0 -93z"/>
<path d="M6740 2760 c-24 -24 -26 -67 -4 -98 11 -16 25 -22 54 -22 29 0 43 6
54 22 36 51 5 118 -54 118 -17 0 -39 -9 -50 -20z"/>
<path d="M6990 2709 c0 -55 3 -69 15 -69 11 0 15 12 15 48 0 53 15 78 37 61 7
-7 13 -32 13 -60 0 -37 4 -49 15 -49 11 0 15 12 15 48 0 50 13 74 36 65 10 -3
14 -22 14 -59 0 -41 4 -54 15 -54 19 0 22 112 3 128 -7 5 -50 10 -95 10 l-83
-1 0 -68z"/>
<path d="M7820 2709 c0 -55 3 -69 15 -69 11 0 15 12 15 48 0 53 15 78 37 61 7
-7 13 -32 13 -60 0 -37 4 -49 15 -49 11 0 15 12 15 48 0 50 13 74 36 65 10 -3
14 -22 14 -59 0 -41 4 -54 15 -54 19 0 22 112 3 128 -7 5 -50 10 -95 10 l-83
-1 0 -68z"/>
<path d="M12998 2769 c-20 -11 -24 -54 -8 -64 8 -5 8 -11 1 -19 -6 -7 -8 -16
-4 -19 3 -4 1 -13 -6 -20 -30 -37 31 -72 78 -46 29 17 39 48 19 60 -7 5 -28 9
-45 9 -18 0 -33 5 -33 10 0 6 10 10 23 10 32 0 46 12 56 47 8 29 7 31 -21 37
-38 8 -39 7 -60 -5z"/>
<path d="M14210 2685 c0 -57 4 -95 10 -95 6 0 10 14 10 31 0 26 3 29 20 24 33
-10 58 4 70 39 12 38 0 83 -25 93 -9 3 -27 1 -41 -5 -15 -7 -24 -8 -24 -2 0 6
-4 10 -10 10 -6 0 -10 -38 -10 -95z"/>
<path d="M12110 2392 l0 -98 39 -1 c56 -3 77 25 73 95 -3 30 -46 51 -73 34
-18 -11 -19 -9 -19 28 0 22 -4 40 -10 40 -6 0 -10 -39 -10 -98z"/>
<path d="M6050 2335 c0 -57 4 -95 10 -95 6 0 10 13 10 30 0 27 2 29 29 24 59
-12 94 66 52 117 -17 22 -22 23 -50 12 -17 -6 -31 -7 -31 -2 0 5 -4 9 -10 9
-6 0 -10 -38 -10 -95z"/>
<path d="M13218 2419 c-19 -11 -24 -54 -8 -64 6 -4 7 -12 3 -18 -4 -7 -8 -16
-8 -22 -1 -5 -5 -19 -10 -29 -18 -40 66 -64 98 -28 34 37 16 62 -44 62 -16 0
-29 5 -29 10 0 6 10 10 23 10 32 0 46 12 56 47 8 29 7 31 -21 37 -38 8 -39 7
-60 -5z"/>
<path d="M6058 2069 c-20 -11 -24 -54 -8 -64 8 -5 8 -11 0 -20 -6 -7 -10 -17
-9 -21 1 -5 -2 -18 -6 -28 -16 -36 50 -60 96 -36 23 13 25 55 3 64 -9 3 -29 6
-45 6 -16 0 -29 5 -29 10 0 6 9 10 21 10 34 0 59 19 59 45 0 14 6 26 13 26 13
1 -39 16 -63 18 -8 0 -23 -4 -32 -10z"/>
<path d="M5670 1490 c0 -28 -3 -30 -34 -30 -56 0 -82 -54 -54 -115 10 -23 27
-31 53 -25 6 1 22 2 38 2 l27 -1 0 100 c0 81 -3 99 -15 99 -10 0 -15 -10 -15
-30z"/>
<path d="M6960 1485 c0 -33 -1 -34 -29 -29 -59 12 -94 -66 -52 -117 17 -22 22
-23 50 -12 17 6 31 7 31 2 0 -5 5 -9 10 -9 6 0 10 40 10 100 0 60 -4 100 -10
100 -5 0 -10 -16 -10 -35z"/>
<path d="M13210 1421 l0 -99 46 2 c53 2 74 22 74 71 0 44 -29 69 -69 60 -30
-6 -31 -6 -31 29 0 20 -4 36 -10 36 -6 0 -10 -40 -10 -99z"/>
<path d="M14860 1485 c0 -33 -1 -34 -29 -29 -59 12 -94 -66 -52 -117 17 -22
22 -23 50 -12 17 6 31 7 31 2 0 -5 5 -9 10 -9 6 0 10 40 10 100 0 60 -4 100
-10 100 -5 0 -10 -16 -10 -35z"/>
<path d="M17010 1420 c0 -60 4 -100 10 -100 6 0 10 5 10 12 0 9 3 9 12 0 31
-31 88 6 88 57 0 16 -9 39 -19 52 -17 22 -22 23 -50 12 l-31 -11 0 39 c0 21
-4 39 -10 39 -6 0 -10 -40 -10 -100z"/>
<path d="M6310 1415 l0 -95 50 0 c77 0 114 47 69 88 -17 17 -18 20 -5 25 23 9
20 54 -3 67 -11 5 -40 10 -65 10 l-46 0 0 -95z"/>
<path d="M8650 1415 l0 -95 45 0 c51 0 99 20 109 45 3 9 6 32 6 50 0 18 -3 41
-6 50 -10 25 -58 45 -109 45 l-45 0 0 -95z m114 60 c32 -32 32 -87 0 -119 -9
-9 -32 -16 -55 -16 l-39 0 0 75 0 75 39 0 c22 0 46 -7 55 -15z"/>
<path d="M5401 1446 c-7 -9 -11 -27 -8 -42 2 -14 0 -43 -5 -65 -8 -29 -7 -43
2 -54 16 -20 84 -19 104 1 32 32 11 64 -41 64 -18 0 -33 5 -33 10 0 6 11 10
24 10 25 0 42 15 48 40 2 8 7 18 13 22 15 11 2 17 -46 24 -34 5 -48 2 -58 -10z"/>
<path d="M7560 1071 l0 -99 46 2 c53 2 74 22 74 71 0 44 -29 69 -69 60 -30 -6
-31 -6 -31 29 0 20 -4 36 -10 36 -6 0 -10 -40 -10 -99z"/>
<path d="M7980 1065 l0 -95 46 0 c25 0 54 5 65 10 24 13 25 57 2 82 -9 10 -11
18 -5 18 20 0 25 41 6 61 -12 14 -30 19 -66 19 l-48 0 0 -95z"/>
<path d="M0 804 l0 -314 33 0 c18 0 37 4 42 9 11 10 166 93 240 129 76 37 134
80 156 115 26 44 25 118 -3 175 -43 86 -195 155 -420 191 l-48 8 0 -313z"/>
<path d="M5040 1015 c0 -57 4 -95 10 -95 6 0 10 13 10 30 0 27 2 29 29 24 59
-12 94 66 52 117 -17 22 -22 23 -50 12 -17 -6 -31 -7 -31 -2 0 5 -4 9 -10 9
-6 0 -10 -38 -10 -95z"/>
<path d="M4305 541 c-55 -23 -77 -101 -42 -154 21 -33 75 -49 122 -36 33 10
35 12 35 55 0 45 0 45 -32 42 -35 -3 -52 -28 -19 -28 27 0 28 -36 2 -45 -28
-9 -70 4 -81 25 -29 55 7 127 58 117 57 -12 65 -12 69 -1 8 24 -70 42 -112 25z"/>
<path d="M7800 520 c0 -26 -4 -30 -27 -30 -34 0 -46 -8 -62 -38 -26 -49 23
-128 65 -104 9 5 25 7 35 5 18 -5 19 2 19 96 0 83 -3 101 -15 101 -10 0 -15
-10 -15 -30z"/>
<path d="M7870 450 l0 -100 33 -1 c70 -3 87 12 87 77 0 49 -18 68 -60 62 -28
-4 -30 -3 -30 29 0 23 -5 33 -15 33 -12 0 -15 -18 -15 -100z"/>
<path d="M9270 516 c0 -30 -2 -33 -25 -28 -39 7 -65 -22 -65 -73 0 -22 5 -46
12 -53 15 -15 55 -16 63 -2 5 8 11 7 21 -1 12 -10 14 4 14 90 0 61 -4 101 -10
101 -5 0 -10 -15 -10 -34z"/>
<path d="M11410 515 c0 -33 -2 -34 -28 -29 -51 10 -86 -49 -60 -103 15 -31 50
-42 74 -23 10 9 14 9 14 1 0 -6 5 -11 10 -11 6 0 10 40 10 100 0 60 -4 100
-10 100 -5 0 -10 -16 -10 -35z"/>
<path d="M8630 445 l0 -95 48 0 c35 0 54 5 65 18 21 23 22 56 2 72 -14 12 -14
15 0 30 32 35 -6 70 -74 70 l-41 0 0 -95z"/>
<path d="M5311 476 c-7 -8 -10 -34 -6 -64 2 -29 0 -54 -5 -57 -28 -17 10 -55
54 -55 43 0 69 20 64 51 -2 20 -9 25 -40 27 -44 4 -51 19 -12 24 15 2 30 10
34 18 4 8 12 25 18 36 10 20 8 22 -20 28 -48 9 -75 7 -87 -8z"/>
<path d="M12838 479 c-20 -11 -24 -54 -8 -64 8 -5 8 -11 1 -19 -6 -7 -8 -16
-4 -19 3 -4 1 -13 -6 -20 -28 -34 26 -69 78 -51 16 6 27 18 29 33 4 28 -12 41
-50 41 -16 0 -28 5 -28 10 0 6 10 10 23 10 29 0 47 18 47 47 0 13 6 24 13 24
13 1 -39 16 -63 18 -8 0 -23 -4 -32 -10z"/>
<path d="M15150 395 c0 -57 4 -95 10 -95 6 0 10 13 10 30 0 27 2 29 28 24 36
-7 61 13 68 56 4 27 1 42 -14 60 -18 23 -23 24 -51 13 -17 -6 -31 -7 -31 -2 0
5 -4 9 -10 9 -6 0 -10 -38 -10 -95z"/>
<path d="M17456 189 c-34 -29 -106 -149 -106 -176 0 -10 36 -13 156 -13 131 0
155 2 151 14 -3 8 -9 32 -13 53 -13 73 -83 153 -133 153 -11 0 -36 -14 -55
-31z"/>
<path d="M6130 166 c0 -30 -2 -33 -25 -28 -39 7 -65 -22 -65 -73 0 -22 5 -46
12 -53 15 -15 55 -16 63 -2 5 8 11 7 21 -1 12 -10 14 4 14 90 0 61 -4 101 -10
101 -5 0 -10 -15 -10 -34z"/>
<path d="M6200 101 l0 -99 46 2 c32 1 50 7 60 21 20 27 17 69 -5 96 -17 22
-22 23 -50 12 l-31 -11 0 39 c0 21 -4 39 -10 39 -6 0 -10 -40 -10 -99z"/>
<path d="M11390 165 c0 -33 -1 -34 -29 -29 -59 12 -94 -66 -52 -117 17 -22 22
-23 50 -12 17 6 31 7 31 2 0 -5 5 -9 10 -9 6 0 10 40 10 100 0 60 -4 100 -10
100 -5 0 -10 -16 -10 -35z"/>
<path d="M11010 95 c0 -57 4 -95 10 -95 6 0 10 15 10 34 0 32 2 34 42 39 101
14 86 117 -17 117 l-45 0 0 -95z"/>
<path d="M12460 71 l0 -69 42 0 c55 -1 78 19 78 69 0 58 -35 83 -81 59 -13 -7
-19 -7 -19 0 0 5 -4 10 -10 10 -6 0 -10 -30 -10 -69z"/>
</g>
</svg>
