<?xml version="1.0" standalone="no"?>
<!DOCTYPE svg PUBLIC "-//W3C//DTD SVG 20010904//EN"
 "http://www.w3.org/TR/2001/REC-SVG-20010904/DTD/svg10.dtd">
<svg version="1.0" xmlns="http://www.w3.org/2000/svg"
 width="2130.000000pt" height="1274.000000pt" viewBox="0 0 2130.000000 1274.000000"
 preserveAspectRatio="xMidYMid meet">
<metadata>
Created by potrace 1.15, written by Peter Selinger 2001-2017
</metadata>
<g transform="translate(0.000000,1274.000000) scale(0.100000,-0.100000)"
fill="#000000" stroke="none">
<path d="M17551 12652 c-69 -35 -76 -54 -79 -235 -3 -190 5 -217 78 -254 40
-21 59 -23 184 -23 237 0 266 29 266 266 -1 240 -25 264 -267 264 -121 0 -154
-3 -182 -18z m350 -55 c33 -25 39 -55 39 -200 0 -141 -1 -145 -25 -169 -21
-21 -39 -26 -102 -32 -102 -9 -228 2 -254 23 -26 21 -38 82 -38 186 0 110 12
164 40 186 21 16 44 19 174 18 102 0 155 -3 166 -12z"/>
<path d="M17705 12540 c-65 -14 -107 -64 -109 -129 -2 -86 53 -141 141 -141
42 0 56 5 89 34 38 33 39 35 39 100 0 60 -3 68 -31 96 -34 35 -83 50 -129 40z
m64 -65 c38 -19 53 -62 35 -103 -13 -32 -48 -49 -89 -43 -27 3 -65 47 -65 74
0 29 26 66 54 77 29 12 33 12 65 -5z"/>
<path d="M17115 12615 c-27 -27 -35 -44 -35 -70 0 -33 -2 -35 -32 -35 -45 0
-127 40 -178 86 -33 30 -43 35 -51 23 -12 -20 -11 -86 2 -112 9 -16 9 -22 0
-25 -26 -9 -1 -83 37 -106 12 -7 12 -10 1 -17 -19 -11 16 -58 60 -81 l33 -16
-31 -16 c-16 -9 -54 -20 -83 -24 l-53 -8 45 -24 c39 -22 58 -25 145 -25 86 0
107 3 150 25 111 54 190 165 202 286 4 33 12 60 22 67 9 7 25 23 36 35 l19 23
-28 -7 c-29 -7 -29 -7 -13 17 25 34 21 42 -13 24 -36 -19 -59 -19 -84 0 -11 8
-41 15 -68 15 -41 0 -52 -5 -83 -35z"/>
<path d="M18100 12610 c-42 -42 -29 -63 96 -156 64 -47 131 -95 150 -106 40
-24 36 -26 202 96 113 83 122 92 122 122 0 61 -13 64 -297 64 -240 0 -254 -1
-273 -20z"/>
<path d="M9340 12400 l0 -160 25 0 c28 0 30 9 25 133 -1 37 2 67 7 67 6 0 38
-45 72 -100 56 -90 65 -100 92 -100 l29 0 0 160 0 160 -25 0 -25 0 0 -105 c0
-58 -3 -105 -8 -105 -4 0 -36 47 -71 105 -57 94 -67 105 -92 105 l-29 0 0
-160z"/>
<path d="M10040 12400 l0 -160 25 0 25 0 0 160 0 160 -25 0 -25 0 0 -160z"/>
<path d="M10540 12399 l0 -161 104 4 c94 3 107 5 130 27 36 34 36 92 0 120
-24 19 -25 22 -10 36 40 40 24 105 -30 125 -14 6 -63 10 -110 10 l-84 0 0
-161z"/>
<path d="M10860 12400 l0 -160 30 0 30 0 0 160 0 160 -30 0 -30 0 0 -160z"/>
<path d="M2655 12515 c-23 -22 -25 -32 -25 -110 0 -71 3 -88 19 -104 23 -23
70 -34 126 -29 32 2 41 7 43 25 3 21 -1 22 -70 25 l-73 3 0 85 0 85 73 3 c64
3 72 5 72 22 0 18 -7 20 -70 20 -62 0 -74 -3 -95 -25z"/>
<path d="M9830 12467 c-30 -15 -60 -71 -60 -112 0 -40 34 -93 68 -106 15 -6
42 -8 61 -5 32 5 71 31 71 46 0 13 -44 20 -54 10 -14 -14 -60 -12 -74 2 -29
29 -13 38 63 38 l75 0 0 28 c0 37 -34 90 -66 102 -33 13 -54 12 -84 -3z"/>
<path d="M10192 12470 c-32 -14 -48 -54 -34 -85 8 -18 27 -29 74 -43 40 -11
63 -23 63 -33 0 -20 -62 -24 -83 -6 -11 10 -28 13 -44 10 -65 -13 33 -80 100
-69 55 9 82 31 82 70 0 42 -11 51 -85 70 -65 18 -70 20 -60 35 8 14 68 14 81
1 10 -10 54 -3 54 10 0 33 -100 60 -148 40z"/>
<path d="M11040 12462 c-42 -21 -60 -53 -60 -108 0 -79 76 -130 154 -104 95
31 102 178 11 216 -45 18 -63 18 -105 -4z"/>
<path d="M11297 12459 c-58 -45 -58 -153 0 -198 31 -25 48 -26 87 -6 35 19 43
13 30 -23 -7 -21 -17 -28 -43 -30 -19 -2 -37 1 -40 6 -3 5 -21 12 -38 15 -39
8 -45 -11 -14 -42 44 -44 157 -35 179 14 7 15 12 77 12 150 l0 125 -25 0 c-16
0 -25 -6 -25 -16 0 -13 -5 -12 -26 5 -34 27 -64 27 -97 0z"/>
<path d="M18083 12350 c6 -122 9 -137 28 -152 19 -16 48 -18 268 -18 207 0
250 2 269 16 21 14 22 22 22 145 0 71 -2 129 -6 129 -3 0 -53 -35 -112 -79
-125 -92 -142 -101 -178 -101 -23 0 -164 92 -283 184 -12 9 -13 -9 -8 -124z"/>
<path d="M3260 12443 c-35 -13 -50 -37 -50 -78 0 -45 10 -58 49 -68 26 -6 72
8 83 26 14 23 8 83 -9 99 -22 19 -53 28 -73 21z"/>
<path d="M3430 12442 c-26 -8 -40 -35 -40 -78 0 -58 30 -79 88 -60 21 7 23 5
20 -16 -3 -21 -7 -23 -58 -21 -51 3 -53 2 -37 -14 22 -22 82 -22 105 0 25 25
32 197 8 197 -9 0 -16 -7 -16 -16 0 -12 -4 -14 -12 -7 -19 15 -41 21 -58 15z"/>
<path d="M3619 12439 c-47 -17 -61 -98 -23 -130 25 -21 85 -15 105 10 51 62
-8 147 -82 120z"/>
<path d="M0 12055 c0 -13 124 -15 1055 -15 l1055 0 0 -2470 0 -2470 4870 0
4870 0 -6 -27 c-4 -16 -8 -30 -10 -32 -7 -8 39 -51 53 -51 8 0 13 12 13 30 0
53 19 80 57 80 18 0 33 -2 33 -4 0 -3 -24 -55 -54 -118 -54 -114 -119 -264
-162 -372 -40 -101 -48 -116 -65 -121 -8 -3 -23 -21 -32 -40 -21 -43 -21 -43
-2 -47 12 -2 12 -7 2 -28 -9 -18 -22 -25 -50 -28 -42 -4 -43 -2 -21 40 21 41
-3 34 -31 -10 l-20 -31 -4722 -1 -4723 0 0 -3170 c0 -2811 2 -3170 15 -3170
13 0 15 357 15 3155 l0 3155 8510 0 8510 0 0 -3155 c0 -2798 2 -3155 15 -3155
13 0 15 359 15 3170 l0 3170 -1989 0 -1990 0 8 28 c5 15 20 56 34 92 15 36 30
81 33 100 4 19 14 49 22 65 17 33 57 171 74 250 5 28 18 68 28 90 9 22 21 51
24 65 4 14 12 35 18 48 l11 22 1864 0 1863 0 0 2470 0 2470 1055 0 c931 0
1055 2 1055 15 0 13 -1190 15 -10650 15 -9460 0 -10650 -2 -10650 -15z m19160
-2470 l0 -2455 -8510 0 -8510 0 0 2455 0 2455 8510 0 8510 0 0 -2455z m-3800
-2497 c0 -24 -67 -252 -82 -281 -6 -12 -14 -29 -18 -37 -9 -20 -57 -46 -66
-37 -4 4 2 31 14 60 12 29 22 70 22 92 l-1 40 -21 -45 c-11 -25 -32 -69 -46
-99 -22 -49 -26 -53 -37 -38 -21 29 -42 10 -49 -45 -5 -36 -12 -51 -25 -55
-10 -2 -30 -32 -46 -69 -16 -36 -36 -70 -44 -77 -12 -10 -13 -6 -7 32 4 24 10
49 14 55 4 6 12 40 18 76 6 36 19 92 28 124 18 64 16 100 -3 51 -6 -16 -14
-37 -17 -45 -5 -11 -8 -9 -15 9 -6 14 -6 28 0 35 5 6 11 26 13 45 4 40 23 52
33 21 9 -30 19 -16 39 55 10 33 24 74 33 92 8 17 12 36 9 42 -5 8 32 11 123
11 98 0 131 -3 131 -12z"/>
<path d="M2870 11829 c0 -39 -1 -41 -26 -35 -54 14 -97 -48 -75 -107 14 -36
47 -52 77 -38 15 6 24 7 24 1 0 -6 5 -10 10 -10 6 0 10 45 10 115 0 70 -4 115
-10 115 -5 0 -10 -18 -10 -41z"/>
<path d="M3040 11829 c0 -39 -1 -41 -26 -35 -54 14 -97 -48 -75 -107 14 -36
47 -52 77 -38 15 6 24 7 24 1 0 -6 5 -10 10 -10 6 0 10 45 10 115 0 70 -4 115
-10 115 -5 0 -10 -18 -10 -41z"/>
<path d="M2636 11852 c-6 -9 -76 -202 -76 -208 0 -2 7 -4 15 -4 8 0 17 11 21
25 5 22 11 25 54 25 43 0 49 -3 54 -25 4 -14 13 -25 21 -25 20 0 20 -1 -23
114 -35 93 -52 120 -66 98z"/>
<path d="M4050 11690 c0 -67 4 -110 10 -110 6 0 10 16 10 35 0 35 1 36 33 30
36 -6 49 0 66 32 35 66 -19 145 -78 113 -14 -7 -21 -7 -21 0 0 5 -4 10 -10 10
-6 0 -10 -43 -10 -110z"/>
<path d="M4236 11779 c-37 -29 -37 -89 0 -118 15 -12 35 -21 46 -21 30 0 68
45 68 80 0 35 -38 80 -68 80 -11 0 -31 -9 -46 -21z"/>
<path d="M2570 10180 c0 -103 1 -110 20 -110 17 0 20 7 20 40 l0 40 40 0 c74
0 105 66 55 115 -20 21 -34 25 -80 25 l-55 0 0 -110z"/>
<path d="M2779 10211 c-18 -14 -24 -29 -24 -61 0 -32 6 -47 24 -61 52 -42 116
-9 116 61 0 47 -29 80 -70 80 -13 0 -33 -9 -46 -19z"/>
<path d="M2580 5731 c0 -124 1 -131 20 -131 17 0 20 7 20 50 l0 50 50 0 c61 0
90 24 90 74 0 59 -27 80 -109 84 l-71 4 0 -131z"/>
<path d="M2843 5780 c-29 -12 -43 -40 -43 -88 0 -58 27 -87 80 -87 32 0 47 6
61 24 25 30 25 101 2 130 -21 24 -68 35 -100 21z"/>
</g>
</svg>
